<svg enable-background="new 0 0 354.331 354.331" viewBox="0 0 354.331 354.331" xmlns="http://www.w3.org/2000/svg"><path d="m7.087 127.56h56.693v226.77h-56.693z" fill="#e20613"/><path d="m63.78 127.56h56.693v226.77h-56.693z" fill="#e95a0c"/><path d="m120.47 127.56h56.693v226.77h-56.693z" fill="#fd0"/><path d="m177.17 127.56h56.692v226.77h-56.692z" fill="#00973a"/><path d="m233.86 127.56h56.693v226.77h-56.693z" fill="#28348a"/><path d="m290.55 127.56h56.692v226.77h-56.692z" fill="#81358a"/><path d="m7.087 127.56h14.173v226.77h-14.173z" fill="#1d1d1b" opacity=".5"/><path d="m49.606 127.56h14.173v226.77h-14.173z" fill="#ececec" opacity=".5"/><path d="m21.26 127.56h28.346v226.77h-28.346z" fill="#868686" opacity=".5"/><path d="m63.78 127.56h14.173v226.77h-14.173z" fill="#1d1d1b" opacity=".5"/><path d="m106.3 127.56h14.173v226.77h-14.173z" fill="#ececec" opacity=".5"/><path d="m77.953 127.56h28.346v226.77h-28.346z" fill="#868686" opacity=".5"/><path d="m120.47 127.56h14.173v226.77h-14.173z" fill="#1d1d1b" opacity=".5"/><path d="m162.99 127.56h14.174v226.77h-14.174z" fill="#ececec" opacity=".5"/><path d="m134.65 127.56h28.346v226.77h-28.346z" fill="#868686" opacity=".5"/><path d="m177.17 127.56h14.173v226.77h-14.173z" fill="#1d1d1b" opacity=".5"/><path d="m219.69 127.56h14.173v226.77h-14.173z" fill="#ececec" opacity=".5"/><path d="m191.34 127.56h28.347v226.77h-28.347z" fill="#868686" opacity=".5"/><path d="m233.86 127.56h14.173v226.77h-14.173z" fill="#1d1d1b" opacity=".5"/><path d="m276.38 127.56h14.174v226.77h-14.174z" fill="#ececec" opacity=".5"/><path d="m248.03 127.56h28.347v226.77h-28.347z" fill="#868686" opacity=".5"/><path d="m290.55 127.56h14.173v226.77h-14.173z" fill="#1d1d1b" opacity=".5"/><path d="m333.07 127.56h14.173v226.77h-14.173z" fill="#ececec" opacity=".5"/><path d="m304.72 127.56h28.347v226.77h-28.347z" fill="#868686" opacity=".5"/><g fill="#caba9f"><path d="m35.434-.001-28.347 127.561h56.693z"/><ellipse cx="14.174" cy="127.56" rx="7.087" ry="3.73"/><ellipse cx="56.693" cy="127.56" rx="7.087" ry="3.73"/><ellipse cx="35.433" cy="127.56" rx="14.173" ry="3.73"/><path d="m92.126-.001-28.346 127.561h56.69z"/><ellipse cx="70.866" cy="127.56" rx="7.087" ry="3.73"/><ellipse cx="113.39" cy="127.56" rx="7.087" ry="3.73"/><ellipse cx="92.126" cy="127.56" rx="14.173" ry="3.73"/><path d="m148.82-.001-28.35 127.561h56.7z"/><ellipse cx="127.56" cy="127.56" rx="7.087" ry="3.73"/><ellipse cx="170.08" cy="127.56" rx="7.087" ry="3.73"/><ellipse cx="148.82" cy="127.56" rx="14.173" ry="3.73"/><path d="m205.51-.001-28.34 127.561h56.69z"/><ellipse cx="184.25" cy="127.56" rx="7.086" ry="3.73"/><ellipse cx="226.77" cy="127.56" rx="7.086" ry="3.73"/><ellipse cx="205.51" cy="127.56" rx="14.173" ry="3.73"/><path d="m262.2-.001-28.34 127.561h56.69z"/><ellipse cx="240.94" cy="127.56" rx="7.086" ry="3.73"/><ellipse cx="283.46" cy="127.56" rx="7.087" ry="3.73"/><ellipse cx="262.2" cy="127.56" rx="14.173" ry="3.73"/><path d="m318.9-.001-28.35 127.561h56.69z"/><ellipse cx="297.64" cy="127.56" rx="7.086" ry="3.73"/><ellipse cx="340.16" cy="127.56" rx="7.086" ry="3.73"/><ellipse cx="318.9" cy="127.56" rx="14.173" ry="3.73"/></g><path d="m35.434-.001-8.312 37.404h16.624z" fill="#e20613"/><path d="m92.126-.001-8.312 37.404h16.626z" fill="#e95a0c"/><path d="m148.82-.001-8.31 37.404h16.62z" fill="#fd0"/><path d="m205.51-.001-8.31 37.404h16.62z" fill="#00973a"/><path d="m262.2-.001-8.31 37.404h16.63z" fill="#28348a"/><path d="m318.9-.001-8.31 37.404h16.62z" fill="#81358a"/></svg>